<?xml version="1.0" encoding="iso-8859-1"?>
<!-- Generator: Adobe Illustrator 24.1.1, SVG Export Plug-In . SVG Version: 6.00 Build 0)  -->
<svg version="1.1" id="Capa_1" xmlns="http://www.w3.org/2000/svg" xmlns:xlink="http://www.w3.org/1999/xlink" x="0px" y="0px"
	 viewBox="0 0 100 100" style="enable-background:new 0 0 100 100;" xml:space="preserve">
<g>
	<path d="M97.262,51.726c-0.055,25.501-21.001,46.275-46.55,46.167C25.219,97.786,4.404,76.747,4.586,51.272
		C4.768,25.707,25.689,4.953,51.164,5.065C76.645,5.178,97.317,26.102,97.262,51.726z M91.53,51.447
		c-0.027-22.63-17.951-40.724-40.449-40.833c-22.435-0.109-40.889,18.373-40.867,40.93c0.021,22.422,18.24,40.762,40.584,40.855
		C73.315,92.493,91.557,74.153,91.53,51.447z"/>
	<path d="M41.234,51.414c-2.677-0.122-4.75-0.217-7.005-0.319c0-3.608,0-7.016,0-10.719c2.275-0.14,4.442-0.273,7.086-0.436
		c0-3.25-0.079-6.313,0.016-9.37c0.212-6.797,4.21-11.195,10.998-11.628c4.895-0.312,9.826-0.061,14.941-0.061
		c0,3.485,0,7.03,0,11.129c-2.093,0-4.162,0.083-6.221-0.019c-3.449-0.169-5.106,1.282-4.834,4.833
		c0.121,1.582,0.021,3.182,0.021,5.186c3.787,0,7.313,0,11.329,0c-0.496,3.954-0.933,7.436-1.408,11.218c-3.325,0-6.378,0-9.898,0
		c0,11.02,0,21.714,0,32.631c-5.118,0-9.766,0-15.025,0C41.234,73.021,41.234,62.232,41.234,51.414z"/>
</g>
</svg>
