<?xml version="1.0" encoding="iso-8859-1"?>
<!-- Generator: Adobe Illustrator 24.1.1, SVG Export Plug-In . SVG Version: 6.00 Build 0)  -->
<svg version="1.1" id="Capa_1" xmlns="http://www.w3.org/2000/svg" xmlns:xlink="http://www.w3.org/1999/xlink" x="0px" y="0px"
	 viewBox="0 0 100 100" style="enable-background:new 0 0 100 100;" xml:space="preserve">
<g>
	<path d="M1.909,74.586c0-15.879,0-31.758,0-47.637c0.06-0.34,0.098-0.686,0.184-1.019c0.659-2.539,0.972-5.239,2.054-7.583
		C9.005,7.822,17.357,2.199,28.961,2.036c14.479-0.203,28.962-0.06,43.444-0.043c5.612,0.007,10.812,1.517,15.387,4.778
		c7.755,5.529,11.644,13.141,11.669,22.663c0.037,14.227,0.027,28.455-0.012,42.682c-0.005,1.832-0.102,3.707-0.495,5.487
		c-2.438,11.048-9.159,18.111-20.062,21.145c-1.425,0.397-2.921,0.54-4.384,0.8c-15.879,0-31.758,0-47.637,0
		c-0.997-0.159-2.006-0.263-2.989-0.484C12.83,96.577,5.739,89.888,2.708,78.963C2.313,77.539,2.169,76.046,1.909,74.586z
		 M10.558,50.768c0,7.049-0.005,14.097,0.003,21.146c0.003,2.231,0.226,4.434,0.982,6.555c2.763,7.754,9.443,12.416,17.882,12.426
		c14.161,0.016,28.322,0.045,42.483-0.039c2.156-0.013,4.41-0.302,6.444-0.985c7.805-2.623,12.454-9.38,12.465-17.814
		c0.018-14.193,0.045-28.386-0.038-42.578c-0.012-2.125-0.302-4.346-0.974-6.351c-2.6-7.764-9.34-12.46-17.707-12.481
		c-14.256-0.035-28.513-0.019-42.769-0.005c-6.395,0.006-11.568,2.526-15.364,7.706c-2.431,3.316-3.414,7.1-3.408,11.18
		C10.566,36.607,10.558,43.687,10.558,50.768z"/>
	<path d="M75.832,50.78c-0.017,13.822-11.393,25.176-25.179,25.129C36.811,75.863,25.472,64.48,25.548,50.707
		c0.076-13.824,11.341-25.067,25.131-25.082C64.481,25.61,75.849,36.979,75.832,50.78z M50.721,34.299
		c-9.055-0.044-16.455,7.328-16.499,16.437c-0.044,9.054,7.327,16.454,16.436,16.5c9.053,0.045,16.455-7.329,16.5-16.437
		C67.202,41.745,59.828,34.343,50.721,34.299z"/>
	<path d="M76.882,18.317c3.496-0.002,6.403,2.912,6.351,6.366c-0.052,3.463-2.898,6.281-6.346,6.282
		c-3.486,0.001-6.4-2.922-6.353-6.372C70.583,21.125,73.422,18.318,76.882,18.317z"/>
</g>
</svg>
