<?xml version="1.0" encoding="iso-8859-1"?>
<!-- Generator: Adobe Illustrator 24.1.1, SVG Export Plug-In . SVG Version: 6.00 Build 0)  -->
<svg version="1.1" id="Capa_1" xmlns="http://www.w3.org/2000/svg" xmlns:xlink="http://www.w3.org/1999/xlink" x="0px" y="0px"
	 viewBox="0 0 100 100" style="enable-background:new 0 0 100 100;" xml:space="preserve">
<g>
	<g>
		<path d="M50.201,99.578l-0.238-0.009c-7.805-0.29-15.14-2.157-21.802-5.552c-0.002-0.001-0.003-0.002-0.004-0.002
			c-6.859,1.723-13.667,3.403-20.476,5.079c-2.044,0.503-3.936,0.047-5.195-1.25c-1.258-1.297-1.657-3.202-1.093-5.227
			c1.811-6.502,3.63-13.002,5.478-19.494C0.013,60.201-0.729,45.099,4.813,31.613C10.375,18.079,21.584,7.836,35.565,3.51
			c12.923-4,26.532-2.589,38.321,3.968c11.843,6.588,20.261,17.481,23.703,30.671c3.363,12.886,1.165,26.84-6.031,38.285
			c-7.166,11.397-18.726,19.389-31.714,21.925c-2.204,0.431-4.415,0.658-6.554,0.878c-0.952,0.098-1.904,0.196-2.853,0.312
			L50.201,99.578z M28.201,87.999c0.914,0,1.801,0.223,2.683,0.672c5.897,3.005,12.137,4.606,19.069,4.894
			c0.907-0.108,1.816-0.202,2.724-0.296c2.099-0.216,4.08-0.42,6.018-0.798c11.369-2.22,21.497-9.229,27.785-19.23
			c6.318-10.048,8.252-22.286,5.306-33.575C88.76,28.074,81.367,18.505,70.97,12.721c-10.343-5.754-22.286-6.99-33.631-3.48
			c-12.265,3.795-22.097,12.781-26.977,24.653C5.486,45.76,6.157,59.056,12.205,70.371c0.741,1.387,0.892,2.798,0.46,4.313
			c-1.731,6.084-3.438,12.176-5.137,18.27c6.396-1.575,12.79-3.154,19.176-4.762C27.212,88.063,27.71,87.999,28.201,87.999z"/>
	</g>
	<g>
		<path d="M62.604,77.31c-2.076,0-4.248-0.322-6.533-0.967c-11.343-3.199-20.765-10.149-28.801-21.248
			c-2.317-3.2-4.599-6.753-5.59-11.046c-1.604-6.945,0.18-13.023,5.304-18.066c1.791-1.763,4.07-2.689,6.645-2.647
			c0.268,0.003,0.536,0.015,0.804,0.028c0.354,0.017,0.687,0.03,0.946,0.014c3.276-0.217,5.931,1.438,7.293,4.551
			c1.243,2.84,2.557,5.959,4.017,9.536c0.901,2.207,0.733,4.468-0.473,6.366c-0.66,1.039-1.344,2.007-2.064,3.02
			c2.787,4.07,6.335,7.076,10.769,9.122c0.695-0.855,1.393-1.718,2.082-2.586c2.154-2.719,5.114-3.536,8.119-2.247
			c3.76,1.617,7.441,3.367,10.547,4.866c2.051,0.99,3.319,2.964,3.394,5.281c0.192,5.912-2.017,10.344-6.567,13.171
			C69.43,76.361,66.158,77.31,62.604,77.31z M33.498,29.334c-0.933,0-1.667,0.294-2.306,0.923c-3.586,3.529-4.786,7.599-3.667,12.44
			c0.709,3.071,2.354,5.77,4.604,8.877c7.214,9.962,15.578,16.175,25.571,18.992c4.546,1.282,8.24,0.897,11.627-1.206
			c2.744-1.705,3.862-4.063,3.738-7.881c-0.003-0.073-0.015-0.104-0.015-0.104c-3.038-1.439-6.646-3.155-10.299-4.726
			c-0.403-0.172-0.51-0.218-1.049,0.462c-0.823,1.038-1.659,2.066-2.489,3.088l-2.41,2.976l-2.028-0.766
			c-7.19-2.714-12.847-7.462-16.814-14.111l-0.993-1.664l1.109-1.59c0.343-0.491,0.683-0.969,1.018-1.439
			c0.736-1.033,1.43-2.009,2.058-2.996c0.062-0.098,0.208-0.327-0.018-0.879c-1.441-3.53-2.736-6.604-3.958-9.398
			c-0.431-0.983-0.807-1.008-1.391-0.97c-0.597,0.04-1.146,0.015-1.629-0.007c-0.201-0.009-0.401-0.019-0.602-0.021
			C33.535,29.334,33.516,29.334,33.498,29.334z"/>
	</g>
</g>
</svg>
