<?xml version="1.0" encoding="utf-8"?>
<!-- Generator: Adobe Illustrator 24.1.1, SVG Export Plug-In . SVG Version: 6.00 Build 0)  -->
<svg version="1.1" xmlns="http://www.w3.org/2000/svg" xmlns:xlink="http://www.w3.org/1999/xlink" x="0px" y="0px"
	 viewBox="0 0 500 500" style="enable-background:new 0 0 500 500;" xml:space="preserve">
<style type="text/css">
	.st0{fill:#424242;}
	.st1{fill:#F05B23;}
	.st2{enable-background:new    ;}
	.st3{clip-path:url(#SVGID_2_);enable-background:new    ;}
	.st4{fill:#863314;}
	.st5{clip-path:url(#SVGID_4_);enable-background:new    ;}
	.st6{fill:#823113;}
	.st7{clip-path:url(#SVGID_6_);enable-background:new    ;}
	.st8{fill:#7D2F12;}
	.st9{clip-path:url(#SVGID_8_);enable-background:new    ;}
	.st10{clip-path:url(#SVGID_10_);enable-background:new    ;}
	.st11{fill:#D5511F;}
	.st12{clip-path:url(#SVGID_12_);enable-background:new    ;}
	.st13{clip-path:url(#SVGID_14_);enable-background:new    ;}
	.st14{fill:#782E12;}
	.st15{fill:#853313;}
	.st16{clip-path:url(#SVGID_16_);enable-background:new    ;}
	.st17{clip-path:url(#SVGID_18_);enable-background:new    ;}
	.st18{clip-path:url(#SVGID_20_);enable-background:new    ;}
	.st19{clip-path:url(#SVGID_22_);enable-background:new    ;}
	.st20{fill:none;stroke:#000000;stroke-width:6;stroke-miterlimit:10;}
</style>
<g id="LINEA_SALIENDO_DEL_ESTRUSOR">
</g>
<g id="RECTANGULO_1_">
</g>
<g id="_x33__D_1_">
</g>
<g id="ESTRUSOR_1_">
</g>
<g id="IN_1_">
</g>
<g id="NOVA_1_">
</g>
<g id="CIRCULO_1_">
	<g>
		<path d="M244.2,216.7c5.3-0.1,10.6-0.5,15.9-0.5c4.6,0,9.2,0.2,13.8,0.7c1.2,0.1,2.8,1.6,3.1,2.8c0.5,1.7-0.9,3.1-2.6,3.5
			c-3.4,0.8-6.7,1.4-10.1,2c-5.2,0.9-10.4,1.6-15.6,2.7c-2.3,0.5-4.2,2.3-4.5,4.8c0,0.3,0,0.5-0.1,0.8h3.9c1-0.8,1.9-1.8,3-2.1
			c3.8-0.9,7.8-1.5,11.7-2.1c5-0.8,10.3-0.2,14.9-3.2c2.4-1.5,3.8-3.7,3.6-6.7c-0.2-3-1.8-5.2-4.6-5.9c-3.1-0.8-6.4-1.8-9.6-1.8
			c-7,0-14,0.6-21,0.7c-2.5,0-5-0.6-7.4-1c0-0.4,0-0.8,0-1.2c1.4-0.5,2.7-1.2,4.1-1.5c4.3-0.9,8.2,0.5,10.7-3.4
			c1.4-2.1-3.4-2.2-2.5-4.3c-4.8,0,3.9,0.2-0.9,0c0.4,1.2-3,1.8-2.2,2.9c-1.8,0.3-3.1,0.4-4.4,0.6c-1.3,0.2-2.7,0.4-4,0.7
			c-2.8,0.7-5.2,3.4-5.1,5.7c0,2.4,2.4,4.6,5.6,5.2C241.4,216.6,242.8,216.8,244.2,216.7z"/>
		<path id="RECTANGULO_NEGRO_2_" d="M89.4,323c-14.4,0-28.9-0.2-43.3-0.1c-3.6,0-5.2-1.1-5.2-5c0.2-26.4,0.1-52.8,0.2-79.1
			c0-6.5,0.1-6.6,6.4-6.6c135.6,0,271.1,0,406.7,0c6.6,0,6.7,0,6.7,6.9c0,25.9-0.2,51.8,0.1,77.7c0.1,5.2-1.7,6.2-6.4,6.2
			c-67.9-0.1-135.7-0.1-203.6-0.1"/>
		<path id="TODO" class="st0" d="M250.9,343.6c15.8,0,31.6,0,47.4,0c1.4,0,2.8,0.4,4.1,0.8c1.8,0.6,3.5,1.5,5.3,2.2
			c1.8,0.8,2.9,2.1,3,4c0.1,0.7,0.1,1.3,0.1,2c0,21.4,0,42.7,0,64.1c0,3.1-1.2,5-4.3,6.4c-17.5,7.6-35,15.2-52.4,22.9
			c-2,0.9-4,0.9-6,0c-17.6-7.7-35.2-15.4-52.9-23.1c-2.7-1.2-3.9-3-3.9-5.8c0.1-21.6,0.1-43.3,0-64.9c0-3,1.3-4.8,4.2-6.2
			c4-2,8.1-2.7,12.7-2.6C222.3,343.7,236.6,343.6,250.9,343.6z M271.5,421.1c4.5-2.1,8.8-3.7,12.7-6c4.7-2.7,7.6-6.9,8.7-12.1
			c0.1-0.6,0.2-1.1,0.2-1.7c0-7.5,0-14.9,0-22.4c0-5-3.8-7.5-8.9-6c-0.6,0.2-1.2,0.4-1.8,0.7c-3.2,1.4-6.3,2.9-9.6,4.2
			c-1,0.4-1.2,0.9-1.2,1.9c0,12.4,0,24.8,0,37.3C271.5,418.3,271.5,419.5,271.5,421.1z M209.6,402c0,0.8,0,1.4,0,1.9
			c0.6,6.8,7.5,13.7,14.7,14.7c3.3,0.4,6.5-1.3,7-4.3c0.7-3.7,1-7.6-0.8-11.1c-1.1-2.1-2.6-4.1-3.9-6.2c2.4-0.6,4-2.2,4.5-4.7
			c1.7-9.6-4.5-16.6-12.1-18.7c-1.2-0.3-2.5-0.4-3.7-0.2c-3.1,0.6-5.6,5.1-4.5,7.8c0.1,0.2,0.3,0.4,0.5,0.5c1.9,0.8,3.9,1.6,5.9,2.4
			c0.1-0.9,0.2-1.6,0.3-2.3c0.3-1.7,1.3-2.3,3.1-1.9c2.3,0.5,4.4,2.5,4.6,4.8c0.1,1.3,0.1,2.7,0,4c-0.3,2.5-1.9,3.6-4.5,3.3
			c-0.9-0.1-1.8-0.4-2.9-0.6c0,1.6-0.1,3.1,0,4.6c0,0.4,0.5,0.9,0.9,1.1c5.5,2.8,6.9,6.4,6.3,12.3c-0.2,2-1.3,2.6-3.3,2.1
			c-3.1-0.7-5.2-3-5.5-6.1c0-0.5-0.3-1.2-0.6-1.4C213.6,403.3,211.7,402.7,209.6,402z"/>
		<path id="PARTE_DE_LA_D" class="st0" d="M278.4,411.8c-0.1-0.7-0.1-1.2-0.1-1.6c0-8.9,0-17.9,0-26.8c0-1.1,0.4-1.7,1.4-2.1
			c1.2-0.4,2.3-1,3.5-1.4c1.9-0.6,3.2,0.3,3.2,2.2c0,7.5,0,15,0,22.5c0,2-1.1,3.6-2.7,4.7C282,410.2,280.2,410.9,278.4,411.8z"/>
		<path id="MEDIO_2_" class="st0" d="M189.4,101.9c41,0,81.7,0,122.7,0c0,0.6,0.1,1.1,0.1,1.7c0,8.9,0,17.8,0,26.8
			c0,0.8-0.3,1.6-0.9,2.3c-4,4.8-8.1,9.5-12.3,14.2c-0.5,0.6-1.9,1.1-2.8,1.1c-30.4,0.1-60.8,0-91.1,0.1c-1.4,0-2.2-0.3-2.9-1.1
			c-4-4.7-8.1-9.4-12.1-14.1c-0.5-0.5-0.8-1.2-0.8-1.8c0-9.4,0-18.8,0-28.3C189.2,102.5,189.3,102.3,189.4,101.9z"/>
		<path id="PUNTO_2_" class="st0" d="M248.9,200.6c-3.3-2.1-6.6-4.2-9.8-6.3c-5.1-3.4-10.1-6.9-15-10.3c-0.7-0.5-1.3-1.2-1.3-1.8
			c-0.1-8.9-0.1-17.7,0-26.6c0-0.3,0.1-0.5,0.2-0.9c18.5,0,36.8,0,55.5,0c0,0.6,0.1,1.2,0.1,1.8c0,8.4,0.1,16.7-0.1,25.1
			c0,0.9-0.7,1.9-1.5,2.6c-8.3,5.7-16.6,11.4-25,17.1c-0.8,0.6-1.6,1.3-2.4,0c-0.1-0.5,0-1.1-0.2-1.6c-2.1-4.9-4.3-9.8-6.4-14.7
			c-0.5-1.1-0.7-2.3-0.7-3.4c-0.1-7.1,0-14.2,0-21.3c0-0.6,0-1.1,0-1.7c-4.6,0-8.7,0-13.2,0c0,0.7,0,1.3,0,1.9
			c0,6.9,0.1,13.8,0,20.6c0,1.5,0.5,2.6,1.8,3.7C237,189.9,243,195.2,248.9,200.6z"/>
		<path id="IZQUIERDO_2_" class="st0" d="M182.3,112.6c0,5.2,0,10.4,0,15.6c-33.4,0-66.6,0-100.1,0c0-5.2,0-10.4,0-15.6
			C115.6,112.6,148.8,112.6,182.3,112.6z"/>
		<path id="DERECHO_2_" class="st0" d="M419.8,112.6c0,5.2,0,10.3,0,15.6c-33.4,0-66.7,0-100.2,0c0-5.2,0-10.3,0-15.6
			C352.9,112.6,386.2,112.6,419.8,112.6z"/>
		<path class="st1" d="M103.7,312.6c4.9-0.7,5.8-1.7,5.9-6.2c0-10.7,0-21.5,0-32.2c0-0.5,0-0.9,0-1.4c0.1,0,0.2,0,0.3-0.1
			c0.2,0.3,0.5,0.7,0.7,1c6.9,11.1,13.9,22.2,20.8,33.4c2.2,3.6,5.1,5.7,9.7,5.5c0.6,0,1.1,0.4,1.7,0.5c-0.6,0.2-1.1,0.5-1.7,0.5
			c-12.2,0-24.4,0-36.6,0c-0.3,0-0.5,0.1-0.8,0"/>
		<path class="st1" d="M135.5,287.5c-3.4-5.4-6.8-10.9-10.2-16.3c-3.8-6.1-7.6-12.1-11.3-18.2c-2.1-3.4-4.8-5.5-9.3-5.3
			c-0.7,0-1.4-0.3-2.1-0.5c0.7-0.2,1.4-0.6,2.2-0.6c12.1,0,24.2,0,36.2,0c0.6,0,1.2,0.3,1.8,0.5c-0.6,0.2-1.1,0.6-1.7,0.7
			c-4.1,0.5-5.2,1.7-5.2,5.8c0,9.6,0,19.3,0,28.9c0,1.7,0,3.3,0,5C135.7,287.4,135.6,287.5,135.5,287.5z"/>
		<g>
			<g class="st2">
				<g class="st2">
					<defs>
						<path id="SVGID_1_" class="st2" d="M142.6,312.6h-4.4c0.2,0,0.4,0,0.6,0h4.4C143,312.6,142.8,312.6,142.6,312.6z"/>
					</defs>
					<clipPath id="SVGID_2_">
						<use xlink:href="#SVGID_1_"  style="overflow:visible;"/>
					</clipPath>
					<g class="st3">
						<path class="st4" d="M142.6,312.6h-4.4c0.2,0,0.4,0,0.6,0h4.4C143,312.6,142.8,312.6,142.6,312.6"/>
					</g>
				</g>
				<g class="st2">
					<defs>
						<path id="SVGID_3_" class="st2" d="M111.8,272.8h-4.4c0.1,0,0.2,0,0.3-0.1l4.4,0C112,272.7,111.9,272.8,111.8,272.8z"/>
					</defs>
					<clipPath id="SVGID_4_">
						<use xlink:href="#SVGID_3_"  style="overflow:visible;"/>
					</clipPath>
					<g class="st5">
						<path class="st6" d="M111.8,272.8h-4.4c0.1,0,0.2,0,0.3-0.1h4.4C112,272.7,111.9,272.8,111.8,272.8"/>
					</g>
				</g>
				<g class="st2">
					<defs>
						<path id="SVGID_5_" class="st2" d="M137.6,287.5h-4.4c-3.4-5.4-6.8-10.9-10.1-16.3c-3.8-6.1-7.6-12.1-11.3-18.2
							c-2-3.3-4.6-5.3-8.7-5.3h4.4c4.1,0,6.7,2.1,8.7,5.3c3.7,6.1,7.5,12.1,11.3,18.2C130.8,276.6,134.2,282.1,137.6,287.5z"/>
					</defs>
					<clipPath id="SVGID_6_">
						<use xlink:href="#SVGID_5_"  style="overflow:visible;"/>
					</clipPath>
					<g class="st7">
						<path class="st8" d="M137.6,287.5h-4.4c-3.4-5.4-6.8-10.9-10.1-16.3c-3.8-6.1-7.6-12.1-11.3-18.2c-2-3.3-4.6-5.3-8.7-5.3h4.4
							c4.1,0,6.7,2.1,8.7,5.3c3.7,6.1,7.5,12.1,11.3,18.2C130.8,276.6,134.2,282.1,137.6,287.5"/>
					</g>
				</g>
				<g class="st2">
					<defs>
						<path id="SVGID_7_" class="st2" d="M106.3,313.7h-4.4c-0.1,0-0.2,0-0.3,0c-0.4-0.1-0.7-0.3-1.1-0.5l4.4,0
							c0.4,0.2,0.7,0.4,1.1,0.5C106.1,313.7,106.2,313.7,106.3,313.7z"/>
					</defs>
					<clipPath id="SVGID_8_">
						<use xlink:href="#SVGID_7_"  style="overflow:visible;"/>
					</clipPath>
					<g class="st9">
						<path class="st8" d="M106.3,313.7h-4.4c-0.1,0-0.2,0-0.3,0c-0.4-0.1-0.7-0.3-1.1-0.5l4.4,0c0.4,0.2,0.7,0.4,1.1,0.5
							C106.1,313.7,106.2,313.7,106.3,313.7"/>
					</g>
				</g>
				<g class="st2">
					<defs>
						<path id="SVGID_9_" class="st2" d="M104.9,313.1h-4.4c0.4-0.2,0.7-0.5,1.1-0.5c4.9-0.7,5.8-1.7,5.8-6.2c0-10.7,0-21.5,0-32.2
							c0-0.4,0-0.9,0-1.4h4.4c0,0.5,0,0.9,0,1.4c0,10.8,0,21.5,0,32.2c0,4.5-0.9,5.5-5.8,6.2C105.6,312.7,105.3,313,104.9,313.1z"/>
					</defs>
					<clipPath id="SVGID_10_">
						<use xlink:href="#SVGID_9_"  style="overflow:visible;"/>
					</clipPath>
					<g class="st10">
						<path class="st8" d="M104.9,313.1l-4.4,0c0.3-0.2,0.6-0.4,0.9-0.5h4.4C105.5,312.8,105.2,313,104.9,313.1"/>
						<path class="st6" d="M105.8,312.7h-4.4c0.1,0,0.1,0,0.2-0.1h4.4C105.9,312.6,105.8,312.6,105.8,312.7"/>
						<path class="st4" d="M106,312.6h-4.4c0,0,0,0,0,0c0.1,0,0.1,0,0.2,0h4.4C106.1,312.6,106.1,312.6,106,312.6
							C106,312.6,106,312.6,106,312.6"/>
						<path class="st6" d="M106.2,312.6h-4.4c1.3-0.2,2.3-0.4,3-0.7h4.4C108.4,312.2,107.4,312.4,106.2,312.6"/>
						<path class="st8" d="M109.2,311.9h-4.4c2.1-0.8,2.6-2.2,2.6-5.5c0-10.7,0-21.5,0-32.2c0-0.4,0-0.9,0-1.4h4.4
							c0,0.5,0,0.9,0,1.4c0,10.8,0,21.5,0,32.2C111.8,309.7,111.3,311.1,109.2,311.9"/>
					</g>
				</g>
				<g>
					<path class="st11" d="M143.2,312.6c0.6,0,1.2,0.4,1.7,0.5c-0.6,0.2-1.1,0.5-1.7,0.5c-12.1,0-24.3,0-36.4,0c-0.2,0-0.3,0-0.5,0
						c-0.1,0-0.2,0-0.3,0c-0.4-0.1-0.7-0.3-1.1-0.5c0.4-0.2,0.7-0.5,1.1-0.5c4.9-0.7,5.8-1.7,5.8-6.2c0-10.7,0-21.5,0-32.2
						c0-0.4,0-0.9,0-1.4c0.1,0,0.2,0,0.3-0.1c0.2,0.3,0.5,0.7,0.7,1c6.9,11.1,13.9,22.2,20.7,33.4c2.1,3.4,4.8,5.5,9,5.5
						C142.8,312.6,143,312.6,143.2,312.6z"/>
				</g>
				<g class="st2">
					<defs>
						<path id="SVGID_11_" class="st2" d="M104.9,247.1h-4.4c0.7-0.2,1.4-0.6,2.2-0.6c5.6,0,11.2,0,16.8,0l4.4,0
							c-5.6,0-11.2,0-16.8,0C106.3,246.6,105.6,246.9,104.9,247.1z"/>
					</defs>
					<clipPath id="SVGID_12_">
						<use xlink:href="#SVGID_11_"  style="overflow:visible;"/>
					</clipPath>
					<g class="st12">
						<path class="st6" d="M104.9,247.1h-4.4c0.6-0.2,1.2-0.4,1.8-0.5h4.4C106.1,246.7,105.5,247,104.9,247.1"/>
						<path class="st4" d="M106.7,246.6h-4.4c0.1,0,0.2,0,0.4,0c5.6,0,11.2,0,16.8,0h4.4c-5.6,0-11.2,0-16.8,0
							C106.9,246.6,106.8,246.6,106.7,246.6"/>
					</g>
				</g>
				<g class="st2">
					<defs>
						<path id="SVGID_13_" class="st2" d="M107,247.7h-4.4c-0.8,0-1.4-0.4-2.1-0.5h4.4C105.6,247.3,106.2,247.7,107,247.7z"/>
					</defs>
					<clipPath id="SVGID_14_">
						<use xlink:href="#SVGID_13_"  style="overflow:visible;"/>
					</clipPath>
					<g class="st13">
						<path class="st8" d="M107,247.7l-4.4,0c-0.8,0-1.4-0.4-2.1-0.5h4.4C105.6,247.3,106.2,247.7,107,247.7"/>
					</g>
				</g>
				<g>
					<path class="st11" d="M107,247.7c-0.8,0-1.4-0.4-2.1-0.5c0.7-0.2,1.4-0.6,2.2-0.6c5.6,0,11.2,0,16.8,0c6.4,0,12.9,0,19.3,0
						c0.6,0,1.2,0.3,1.8,0.5c-0.5,0.2-1.1,0.6-1.6,0.7c-4.1,0.5-5.2,1.7-5.2,5.8c0,9.6,0,19.3,0,28.9c0,1.7,0,3.3,0,5
						c-0.1,0-0.3,0-0.4,0c-3.4-5.4-6.8-10.9-10.1-16.3c-3.8-6.1-7.6-12.1-11.3-18.2c-2-3.3-4.6-5.3-8.7-5.3
						C107.3,247.7,107.2,247.7,107,247.7z"/>
				</g>
			</g>
		</g>
		<g>
			<g class="st2">
				<g>
					<rect x="195.2" y="245.5" class="st14" width="4.4" height="51.8"/>
				</g>
				<g>
					<polygon class="st15" points="199.6,245.5 195.2,245.5 206.9,245.5 211.3,245.5 					"/>
				</g>
				<g>
					<polygon class="st14" points="196,314.6 191.6,314.6 162.9,261 167.2,261 					"/>
				</g>
				<g>
					<polygon class="st15" points="155.6,245.5 151.2,245.5 167,245.5 171.4,245.5 					"/>
				</g>
				<g>
					<rect x="151.2" y="245.5" class="st14" width="4.4" height="69.1"/>
				</g>
				<g>
					<polygon class="st11" points="211.3,245.5 211.3,314.6 196,314.6 167.2,261 167.2,314.6 155.6,314.6 155.6,245.5 171.4,245.5
						199.6,297.3 199.6,245.5 					"/>
				</g>
			</g>
			<g class="st2">
				<g>
					<polygon class="st14" points="390.9,314.6 386.6,314.6 380.5,296.4 384.9,296.4 					"/>
				</g>
				<g>
					<polygon class="st14" points="381.7,286.5 377.4,286.5 367.6,254.2 372,254.2 					"/>
				</g>
				<g>
					<polygon class="st15" points="363.1,245.5 358.7,245.5 376.6,245.5 381,245.5 					"/>
				</g>
				<g>
					<polygon class="st15" points="362.5,286.5 358.1,286.5 377.4,286.5 381.7,286.5 					"/>
				</g>
				<g>
					<polygon class="st14" points="340.7,314.6 336.4,314.6 358.7,245.5 363.1,245.5 					"/>
				</g>
				<g>
					<path class="st11" d="M381,245.5l23.5,69.1h-13.6l-6.1-18.2h-25.3l-5.5,18.2h-13.3l22.4-69.1H381z M362.5,286.5h19.3l-9.7-32.3
						L362.5,286.5"/>
				</g>
				<g>
					<polygon class="st15" points="331.6,245.5 327.3,245.5 340.8,245.5 345.1,245.5 					"/>
				</g>
				<g>
					<polygon class="st14" points="314.4,304.3 310.1,304.3 327.3,245.5 331.6,245.5 					"/>
				</g>
				<g>
					<polygon class="st14" points="305.3,314.6 301,314.6 278,245.5 282.3,245.5 					"/>
				</g>
				<g>
					<polygon class="st11" points="345.1,245.5 323.3,314.6 305.3,314.6 282.3,245.5 296,245.5 314.4,304.3 331.6,245.5 					"/>
				</g>
				<g>
					<polygon class="st15" points="282.3,245.5 278,245.5 291.7,245.5 296,245.5 					"/>
				</g>
			</g>
			<g class="st2">
				<g>
					<rect x="263.9" y="272.3" class="st14" width="4.4" height="15.8"/>
				</g>
				<g class="st2">
					<defs>
						<path id="SVGID_15_" class="st2" d="M251.5,306.3h-4.4c5.6,0,9.8-1.6,12.6-4.9c2.8-3.3,4.2-7.7,4.2-13.4h4.4
							c0,5.7-1.4,10.1-4.2,13.4C261.2,304.7,257,306.3,251.5,306.3z"/>
					</defs>
					<clipPath id="SVGID_16_">
						<use xlink:href="#SVGID_15_"  style="overflow:visible;"/>
					</clipPath>
					<g class="st16">
						<path class="st4" d="M251.5,306.3h-4.4c1.3,0,2.4-0.1,3.6-0.2h4.4C253.9,306.2,252.7,306.3,251.5,306.3"/>
						<path class="st6" d="M255,306.1h-4.4c1.3-0.2,2.5-0.5,3.6-0.9h4.4C257.5,305.6,256.3,305.9,255,306.1"/>
						<path class="st8" d="M258.7,305.1l-4.4,0c2.2-0.8,4-2.1,5.4-3.7c2.8-3.3,4.2-7.7,4.2-13.4h4.4c0,5.7-1.4,10.1-4.2,13.4
							C262.6,303.1,260.8,304.3,258.7,305.1"/>
					</g>
				</g>
				<g class="st2">
					<defs>
						<path id="SVGID_17_" class="st2" d="M268.3,272.3h-4.4c0-5.7-1.4-10.2-4.2-13.5c-2.8-3.3-7-4.9-12.6-4.9l4.4,0
							c5.6,0,9.8,1.6,12.6,4.9C266.9,262,268.3,266.5,268.3,272.3z"/>
					</defs>
					<clipPath id="SVGID_18_">
						<use xlink:href="#SVGID_17_"  style="overflow:visible;"/>
					</clipPath>
					<g class="st17">
						<path class="st8" d="M268.3,272.3h-4.4c0-5.7-1.4-10.2-4.2-13.5c-2.8-3.3-7-4.9-12.6-4.9h4.4c5.6,0,9.8,1.6,12.6,4.9
							C266.9,262,268.3,266.5,268.3,272.3"/>
					</g>
				</g>
				<g class="st2">
					<defs>
						<path id="SVGID_19_" class="st2" d="M251.5,315.9h-4.4c-6.5,0-12-1.2-16.5-3.6c-4.5-2.4-7.9-5.7-10.1-9.9
							c-2.3-4.2-3.4-9.1-3.4-14.5h4.4c0,5.5,1.1,10.3,3.4,14.5c2.3,4.2,5.6,7.5,10.1,9.9C239.5,314.7,245,315.9,251.5,315.9z"/>
					</defs>
					<clipPath id="SVGID_20_">
						<use xlink:href="#SVGID_19_"  style="overflow:visible;"/>
					</clipPath>
					<g class="st18">
						<path class="st8" d="M251.5,315.9h-4.4c-6.5,0-12-1.2-16.5-3.6c-4.5-2.4-7.9-5.7-10.1-9.9c-2.3-4.2-3.4-9.1-3.4-14.5h4.4
							c0,5.5,1.1,10.3,3.4,14.5c2.3,4.2,5.6,7.5,10.1,9.9C239.5,314.7,245,315.9,251.5,315.9"/>
					</g>
				</g>
				<g>
					<rect x="217.1" y="272.3" class="st14" width="4.4" height="15.5"/>
				</g>
				<g class="st2">
					<defs>
						<path id="SVGID_21_" class="st2" d="M221.4,272.3h-4.4c0-5.5,1.1-10.4,3.4-14.7c2.3-4.2,5.6-7.6,10.1-9.9
							c4.5-2.4,10-3.5,16.5-3.5l4.4,0c-6.5,0-12,1.2-16.5,3.5c-4.5,2.4-7.9,5.7-10.1,9.9C222.6,261.9,221.4,266.8,221.4,272.3z"/>
					</defs>
					<clipPath id="SVGID_22_">
						<use xlink:href="#SVGID_21_"  style="overflow:visible;"/>
					</clipPath>
					<g class="st19">
						<path class="st8" d="M221.4,272.3h-4.4c0-5.5,1.1-10.4,3.4-14.7c2.3-4.2,5.6-7.6,10.1-9.9c1-0.5,2-1,3-1.4h4.4
							c-1.1,0.4-2.1,0.9-3,1.4c-4.5,2.4-7.9,5.7-10.1,9.9C222.6,261.9,221.4,266.8,221.4,272.3"/>
						<path class="st6" d="M238,246.4h-4.4c2.1-0.8,4.3-1.4,6.8-1.7h4.4C242.4,245,240.1,245.6,238,246.4"/>
						<path class="st4" d="M244.8,244.7h-4.4c2.1-0.3,4.3-0.5,6.7-0.5h4.4C249.1,244.2,246.9,244.4,244.8,244.7"/>
					</g>
				</g>
				<g>
					<path class="st11" d="M278.2,257.7c2.3,4.2,3.4,9.1,3.4,14.7v15.5c0,5.5-1.1,10.3-3.4,14.5c-2.3,4.2-5.6,7.5-10.1,9.9
						c-4.5,2.4-10,3.6-16.6,3.6c-6.5,0-12-1.2-16.5-3.6c-4.5-2.4-7.9-5.7-10.1-9.9c-2.3-4.2-3.4-9.1-3.4-14.5v-15.5
						c0-5.5,1.1-10.4,3.4-14.7c2.3-4.2,5.6-7.6,10.1-9.9c4.5-2.4,10-3.5,16.5-3.5c6.6,0,12.1,1.2,16.6,3.5
						C272.5,250.1,275.9,253.4,278.2,257.7z M268.3,288v-15.8c0-5.7-1.4-10.2-4.2-13.5c-2.8-3.3-7-4.9-12.6-4.9
						c-5.6,0-9.8,1.6-12.6,4.9c-2.8,3.3-4.2,7.8-4.2,13.5V288c0,5.7,1.4,10.1,4.2,13.4c2.8,3.3,7,4.9,12.6,4.9
						c5.6,0,9.8-1.6,12.6-4.9C266.9,298.2,268.3,293.7,268.3,288"/>
				</g>
			</g>
		</g>
		<circle id="ELIPSE" class="st20" cx="250" cy="250.9" r="231.7"/>
	</g>
</g>
</svg>
