<?xml version="1.0" encoding="iso-8859-1"?>
<!-- Generator: Adobe Illustrator 24.1.1, SVG Export Plug-In . SVG Version: 6.00 Build 0)  -->
<svg version="1.1" id="innova" xmlns="http://www.w3.org/2000/svg" xmlns:xlink="http://www.w3.org/1999/xlink" x="0px" y="0px"
	 viewBox="0 0 200 100" style="enable-background:new 0 0 200 100;" xml:space="preserve">
<g>
	<g>
		<path style="fill:none;" d="M163.29,69.229c0.819-0.221,1.386-0.765,1.535-1.609c0.586-3.308-1.56-5.706-4.163-6.431
			c-0.4-0.112-0.871-0.14-1.279-0.064c-1.047,0.195-1.924,1.755-1.56,2.688c0.029,0.073,0.105,0.153,0.18,0.184
			c0.665,0.281,1.336,0.552,2.034,0.839c0.046-0.313,0.072-0.56,0.12-0.802c0.115-0.58,0.453-0.789,1.051-0.662
			c0.803,0.171,1.497,0.864,1.574,1.638c0.045,0.457,0.048,0.926-0.002,1.382c-0.093,0.855-0.643,1.248-1.558,1.146
			c-0.311-0.035-0.614-0.127-0.986-0.207c0,0.549-0.022,1.062,0.015,1.571c0.01,0.131,0.179,0.297,0.32,0.368
			c1.903,0.953,2.361,2.207,2.158,4.232c-0.067,0.671-0.447,0.882-1.145,0.721c-1.071-0.247-1.769-1.039-1.876-2.09
			c-0.017-0.168-0.095-0.424-0.219-0.474c-0.638-0.254-1.3-0.454-2.022-0.696c0,0.272-0.014,0.465,0.002,0.656
			c0.195,2.341,2.581,4.721,5.051,5.042c1.132,0.147,2.215-0.457,2.413-1.488c0.246-1.279,0.343-2.592-0.291-3.811
			C164.26,70.625,163.751,69.946,163.29,69.229z"/>
		<path style="fill:none;" d="M183.038,60.998c-0.215,0.065-0.427,0.147-0.631,0.238c-1.094,0.486-2.178,0.994-3.284,1.456
			c-0.341,0.142-0.416,0.321-0.415,0.642c0.01,4.265,0.007,8.53,0.007,12.795c0,0.426,0,0.851,0,1.405
			c1.529-0.71,3.009-1.277,4.351-2.053c1.627-0.941,2.616-2.385,2.984-4.167c0.039-0.19,0.055-0.388,0.055-0.582
			c0.004-2.559,0.012-5.118-0.001-7.677C186.095,61.333,184.787,60.465,183.038,60.998z M183.827,71.808
			c-0.004,0.683-0.361,1.249-0.944,1.622c-0.535,0.342-1.149,0.574-1.8,0.889c-0.017-0.253-0.037-0.406-0.037-0.559
			c-0.002-3.069,0.007-6.139-0.012-9.208c-0.002-0.381,0.132-0.585,0.493-0.717c0.404-0.148,0.785-0.355,1.194-0.485
			c0.637-0.201,1.103,0.108,1.106,0.741C183.839,66.663,183.84,69.235,183.827,71.808z"/>
		<path style="fill:#424242;" d="M192.191,54.022c0-0.23-0.012-0.461-0.03-0.691c-0.05-0.647-0.419-1.088-1.029-1.361
			c-0.597-0.267-1.187-0.557-1.806-0.772c-0.447-0.155-0.936-0.287-1.407-0.288c-5.419-0.02-10.839-0.013-16.258-0.013
			c-4.908,0-9.816,0.039-14.723-0.023c-1.557-0.02-2.958,0.23-4.346,0.902c-0.989,0.479-1.436,1.074-1.433,2.113
			c0.022,7.426,0.022,14.851,0,22.277c-0.003,0.979,0.405,1.591,1.345,2c6.057,2.631,12.106,5.278,18.151,7.932
			c0.709,0.311,1.362,0.3,2.066-0.01c5.994-2.635,11.987-5.274,18-7.869c1.062-0.458,1.488-1.107,1.484-2.188
			C192.18,68.696,192.193,61.359,192.191,54.022z M164.935,75.173c-0.198,1.03-1.281,1.635-2.413,1.488
			c-2.47-0.321-4.856-2.7-5.051-5.042c-0.016-0.191-0.002-0.384-0.002-0.656c0.722,0.242,1.385,0.441,2.022,0.696
			c0.125,0.05,0.202,0.306,0.219,0.474c0.106,1.052,0.805,1.843,1.876,2.09c0.698,0.161,1.077-0.05,1.145-0.721
			c0.203-2.026-0.255-3.279-2.158-4.232c-0.141-0.071-0.311-0.237-0.32-0.368c-0.037-0.509-0.015-1.021-0.015-1.571
			c0.373,0.08,0.676,0.173,0.986,0.207c0.915,0.102,1.465-0.291,1.558-1.146c0.05-0.457,0.048-0.925,0.002-1.382
			c-0.077-0.774-0.771-1.467-1.574-1.638c-0.598-0.127-0.936,0.081-1.051,0.662c-0.048,0.242-0.074,0.488-0.12,0.802
			c-0.698-0.286-1.369-0.557-2.034-0.839c-0.075-0.032-0.152-0.111-0.18-0.184c-0.364-0.932,0.513-2.492,1.56-2.688
			c0.408-0.076,0.878-0.048,1.279,0.064c2.603,0.726,4.749,3.124,4.163,6.431c-0.15,0.844-0.717,1.388-1.535,1.609
			c0.461,0.717,0.97,1.396,1.354,2.133C165.277,72.58,165.181,73.894,164.935,75.173z M186.05,71.313
			c-0.368,1.782-1.357,3.226-2.984,4.167c-1.342,0.776-2.822,1.343-4.351,2.053c0-0.554,0-0.979,0-1.405
			c0-4.265,0.003-8.53-0.007-12.795c-0.001-0.321,0.075-0.5,0.415-0.642c1.106-0.462,2.189-0.97,3.284-1.456
			c0.205-0.091,0.416-0.172,0.631-0.238c1.749-0.532,3.057,0.336,3.066,2.056c0.013,2.559,0.005,5.118,0.001,7.677
			C186.105,70.925,186.089,71.122,186.05,71.313z"/>
		<path style="fill:#424242;" d="M182.722,63.349c-0.409,0.13-0.791,0.336-1.194,0.485c-0.361,0.133-0.495,0.336-0.493,0.717
			c0.019,3.069,0.01,6.139,0.012,9.208c0,0.153,0.02,0.306,0.037,0.559c0.65-0.315,1.265-0.547,1.8-0.889
			c0.582-0.373,0.94-0.939,0.944-1.622c0.014-2.573,0.012-5.145,0.001-7.718C183.825,63.458,183.359,63.148,182.722,63.349z"/>
	</g>
	<path d="M147.85,53.189c0-2.339-0.017-2.353-2.285-2.353c-23.36,0.001-46.719,0.002-70.079,0.003
		c0.13-0.089,0.264-0.166,0.406-0.199c1.319-0.312,2.666-0.503,4.008-0.705c1.731-0.261,3.546-0.085,5.129-1.092
		c0.831-0.528,1.319-1.258,1.235-2.287c-0.083-1.018-0.61-1.773-1.566-2.031c-1.08-0.291-2.196-0.602-3.298-0.608
		c-2.398-0.012-4.797,0.202-7.197,0.242c-0.849,0.014-1.702-0.211-2.553-0.328c-0.005-0.138-0.01-0.275-0.015-0.413
		c0.468-0.172,0.925-0.405,1.407-0.503c1.463-0.296,2.437,0.27,3.3-1.065c0.462-0.714-0.761-0.837-0.513-1.541
		c0.215,0.002,0.341-0.003,0.004-0.023c0.001-0.001,0-0.002,0.001-0.004c-0.024,0-0.038,0-0.06,0
		c-0.066-0.004-0.144-0.008-0.24-0.013c0.002,0.005-0.002,0.009-0.001,0.014c-0.332,0.003-0.213,0.013-0.001,0.019
		c0.052,0.383-1.03,0.586-0.74,0.958c-0.603,0.088-1.061,0.151-1.517,0.223c-0.457,0.072-0.92,0.121-1.367,0.235
		c-0.976,0.249-1.773,1.161-1.762,1.968c0.012,0.825,0.824,1.595,1.909,1.769c0.484,0.078,0.979,0.138,1.467,0.127
		c1.822-0.041,3.644-0.163,5.465-0.162c1.584,0.001,3.175,0.068,4.749,0.242c0.399,0.044,0.951,0.544,1.066,0.946
		c0.17,0.596-0.299,1.075-0.898,1.21c-1.153,0.26-2.315,0.48-3.479,0.687c-1.784,0.318-3.585,0.55-5.354,0.942
		c-0.694,0.154-1.275,0.669-1.462,1.392c-22.556,0.001-45.112,0.002-67.668,0.003c-2.177,0-2.208,0.029-2.212,2.262
		C3.712,62.161,3.715,71.218,3.66,80.275c-0.008,1.358,0.522,1.737,1.771,1.729c4.953-0.031,9.906,0.029,14.86,0.031l55.516-0.068
		c23.297,0,46.595-0.013,69.892,0.028c1.588,0.003,2.205-0.35,2.187-2.141C147.796,70.966,147.851,62.077,147.85,53.189z"/>
	<g>
		<path style="fill:#424242;" d="M56.38,9.493c-0.024,0.111-0.052,0.179-0.052,0.246c-0.003,2.965-0.009,5.929,0.006,8.894
			c0.001,0.194,0.118,0.408,0.264,0.579c1.26,1.484,2.546,2.957,3.805,4.441c0.216,0.255,0.46,0.358,0.903,0.357
			c9.564-0.009,19.129-0.003,28.693-0.021c0.303-0.001,0.732-0.16,0.887-0.334c1.32-1.479,2.602-2.975,3.865-4.477
			c0.177-0.211,0.268-0.485,0.27-0.73c0.018-2.809,0.012-5.617,0.01-8.426c0-0.169-0.02-0.337-0.033-0.529
			C82.115,9.493,69.279,9.493,56.38,9.493z"/>
		<path style="fill:#424242;" d="M84.434,26.081c-5.872,0-11.658,0-17.47,0c-0.021,0.112-0.05,0.195-0.05,0.278
			c-0.003,2.791-0.011,5.581,0.014,8.372c0.002,0.192,0.192,0.424,0.398,0.569c1.558,1.094,3.131,2.179,4.723,3.251
			c1.007,0.678,2.055,1.328,3.084,1.991c-1.886-1.675-3.757-3.358-5.669-5.019c-0.419-0.364-0.588-0.721-0.582-1.18
			c0.03-2.165,0.013-4.33,0.013-6.495c0-0.186,0-0.371,0-0.587c1.398,0,2.711,0,4.148,0c0,0.181,0,0.362,0,0.543
			c0,2.234-0.01,4.469,0.01,6.703c0.003,0.356,0.089,0.723,0.234,1.066c0.65,1.545,1.341,3.081,2.001,4.624
			c0.069,0.161,0.04,0.342,0.056,0.514c0.242,0.411,0.493,0.191,0.759,0.01c2.624-1.791,5.261-3.572,7.86-5.379
			c0.279-0.194,0.482-0.531,0.485-0.803c0.036-2.634,0.022-5.269,0.02-7.904C84.47,26.451,84.447,26.268,84.434,26.081z"/>
		<path style="fill:#424242;" d="M22.637,17.758c10.532,0,21.002,0,31.504,0c0-1.658,0-3.281,0-4.923c-10.522,0-20.998,0-31.504,0
			C22.637,14.49,22.637,16.126,22.637,17.758z"/>
		<path style="fill:#424242;" d="M97.374,12.852c0,1.658,0,3.278,0,4.901c10.54,0,21.029,0,31.535,0c0-1.649,0-3.258,0-4.901
			C118.343,12.852,107.854,12.852,97.374,12.852z"/>
	</g>
	<g>
		<g style="enable-background:new    ;">
			<g>
				<rect x="56.408" y="55.421" style="fill:#782E12;" width="1.745" height="17.802"/>
			</g>
			<g>
				<polygon style="fill:#853313;" points="58.153,55.421 56.408,55.421 60.446,55.421 62.191,55.421 				"/>
			</g>
			<g>
				<polygon style="fill:#782E12;" points="56.93,79.154 55.185,79.154 45.273,60.749 47.018,60.749 				"/>
			</g>
			<g>
				<polygon style="fill:#853313;" points="43.015,55.421 41.27,55.421 46.712,55.421 48.457,55.421 				"/>
			</g>
			<g>
				<rect x="41.27" y="55.421" style="fill:#782E12;" width="1.745" height="23.733"/>
			</g>
			<g>
				<polygon style="fill:#D2501F;" points="62.191,55.421 62.191,79.154 56.93,79.154 47.018,60.749 47.018,79.154 43.015,79.154 
					43.015,55.421 48.457,55.421 58.153,73.223 58.153,55.421 				"/>
			</g>
		</g>
		<g style="enable-background:new    ;">
			<g>
				<polygon style="fill:#782E12;" points="124.074,79.154 122.329,79.154 120.242,72.917 121.987,72.917 				"/>
			</g>
			<g>
				<polygon style="fill:#782E12;" points="120.908,69.488 119.163,69.488 115.808,58.409 117.553,58.409 				"/>
			</g>
			<g>
				<polygon style="fill:#853313;" points="114.485,55.421 112.741,55.421 118.911,55.421 120.656,55.421 				"/>
			</g>
			<g>
				<polygon style="fill:#853313;" points="114.27,69.488 112.525,69.488 119.163,69.488 120.908,69.488 				"/>
			</g>
			<g>
				<polygon style="fill:#782E12;" points="106.777,79.154 105.032,79.154 112.741,55.421 114.485,55.421 				"/>
			</g>
			<g>
				<path style="fill:#D2501F;" d="M120.656,55.421l8.104,23.733h-4.686l-2.087-6.237h-8.725l-1.907,6.237h-4.578l7.708-23.733
					H120.656z M114.27,69.488h6.638l-3.355-11.079L114.27,69.488"/>
			</g>
			<g>
				<polygon style="fill:#853313;" points="103.638,55.421 101.893,55.421 106.543,55.421 108.288,55.421 				"/>
			</g>
			<g>
				<polygon style="fill:#782E12;" points="97.729,75.626 95.984,75.626 101.893,55.421 103.638,55.421 				"/>
			</g>
			<g>
				<polygon style="fill:#782E12;" points="94.59,79.154 92.845,79.154 84.921,55.421 86.666,55.421 				"/>
			</g>
			<g>
				<polygon style="fill:#D2501F;" points="108.288,55.421 100.796,79.154 94.59,79.154 86.666,55.421 91.388,55.421 97.729,75.626 
					103.638,55.421 				"/>
			</g>
			<g>
				<polygon style="fill:#853313;" points="86.666,55.421 84.921,55.421 89.643,55.421 91.388,55.421 				"/>
			</g>
		</g>
		<g style="enable-background:new    ;">
			<g>
				<rect x="80.09" y="64.61" style="fill:#782E12;" width="1.745" height="5.418"/>
			</g>
			<g style="enable-background:new    ;">
				<defs>
					<path id="SVGID_1_" style="enable-background:new    ;" d="M76.034,76.301l-1.745,0c1.916,0,3.364-0.558,4.344-1.674
						c0.971-1.116,1.457-2.655,1.457-4.599h1.745c0,1.944-0.486,3.483-1.457,4.599C79.398,75.743,77.95,76.301,76.034,76.301z"/>
				</defs>
				<clipPath id="SVGID_3_">
					<use xlink:href="#SVGID_1_"  style="overflow:visible;"/>
				</clipPath>
				<g style="clip-path:url(#SVGID_3_);enable-background:new    ;">
					<path style="fill:#863314;" d="M76.034,76.301h-1.745c0.388,0,0.757-0.023,1.106-0.069h1.745
						C76.791,76.278,76.422,76.301,76.034,76.301"/>
					<path style="fill:#823113;" d="M77.14,76.232h-1.745c0.427-0.056,0.825-0.146,1.195-0.27h1.745
						C77.965,76.086,77.567,76.176,77.14,76.232"/>
					<path style="fill:#7D2F12;" d="M78.335,75.962H76.59c0.823-0.276,1.504-0.721,2.043-1.335c0.971-1.116,1.457-2.655,1.457-4.599
						h1.745c0,1.944-0.486,3.483-1.457,4.599C79.839,75.241,79.158,75.686,78.335,75.962"/>
				</g>
			</g>
			<g style="enable-background:new    ;">
				<defs>
					<path id="SVGID_5_" style="enable-background:new    ;" d="M81.835,64.61H80.09c0-1.971-0.486-3.519-1.457-4.644
						c-0.98-1.134-2.429-1.692-4.344-1.692l1.745,0c1.916,0,3.364,0.558,4.344,1.692C81.35,61.091,81.835,62.639,81.835,64.61z"/>
				</defs>
				<clipPath id="SVGID_7_">
					<use xlink:href="#SVGID_5_"  style="overflow:visible;"/>
				</clipPath>
				<g style="clip-path:url(#SVGID_7_);enable-background:new    ;">
					<path style="fill:#7D2F12;" d="M81.835,64.61H80.09c0-1.971-0.486-3.519-1.457-4.644c-0.98-1.134-2.429-1.692-4.344-1.692
						l1.745,0c1.916,0,3.364,0.558,4.344,1.692C81.35,61.091,81.835,62.639,81.835,64.61"/>
				</g>
			</g>
			<g style="enable-background:new    ;">
				<defs>
					<path id="SVGID_9_" style="enable-background:new    ;" d="M76.034,79.595l-1.745,0c-2.24,0-4.128-0.414-5.676-1.242
						c-1.556-0.819-2.716-1.962-3.499-3.402c-0.783-1.449-1.169-3.114-1.169-4.986h1.745c0,1.872,0.387,3.537,1.169,4.986
						c0.783,1.44,1.943,2.583,3.499,3.402C71.906,79.181,73.794,79.595,76.034,79.595z"/>
				</defs>
				<clipPath id="SVGID_11_">
					<use xlink:href="#SVGID_9_"  style="overflow:visible;"/>
				</clipPath>
				<g style="clip-path:url(#SVGID_11_);enable-background:new    ;">
					<path style="fill:#7D2F12;" d="M76.034,79.595h-1.745c-2.24,0-4.128-0.414-5.676-1.242c-1.556-0.819-2.716-1.962-3.499-3.402
						c-0.783-1.449-1.169-3.114-1.169-4.986h1.745c0,1.872,0.387,3.537,1.169,4.986c0.783,1.44,1.943,2.583,3.499,3.402
						C71.906,79.181,73.794,79.595,76.034,79.595"/>
				</g>
			</g>
			<g>
				<rect x="63.945" y="64.646" style="fill:#782E12;" width="1.745" height="5.319"/>
			</g>
			<g style="enable-background:new    ;">
				<defs>
					<path id="SVGID_13_" style="enable-background:new    ;" d="M65.69,64.646h-1.745c0-1.899,0.387-3.582,1.169-5.04
						c0.783-1.458,1.943-2.592,3.499-3.402c1.547-0.819,3.436-1.224,5.676-1.224l1.745,0c-2.24,0-4.128,0.405-5.676,1.224
						c-1.556,0.81-2.716,1.944-3.499,3.402C66.077,61.064,65.69,62.747,65.69,64.646z"/>
				</defs>
				<clipPath id="SVGID_15_">
					<use xlink:href="#SVGID_13_"  style="overflow:visible;"/>
				</clipPath>
				<g style="clip-path:url(#SVGID_15_);enable-background:new    ;">
					<path style="fill:#7D2F12;" d="M65.69,64.646h-1.745c0-1.899,0.387-3.582,1.169-5.04c0.783-1.458,1.943-2.592,3.499-3.402
						c0.439-0.232,0.905-0.431,1.4-0.597h1.745c-0.494,0.166-0.961,0.365-1.4,0.597c-1.556,0.81-2.716,1.944-3.499,3.402
						C66.077,61.064,65.69,62.747,65.69,64.646"/>
					<path style="fill:#823113;" d="M71.758,55.607h-1.745c0.683-0.229,1.419-0.395,2.209-0.499h1.745
						C73.177,55.211,72.441,55.377,71.758,55.607"/>
					<path style="fill:#863314;" d="M73.967,55.108h-1.745c0.652-0.085,1.341-0.128,2.067-0.128l1.745,0
						C75.308,54.98,74.619,55.022,73.967,55.108"/>
				</g>
			</g>
			<g>
				<path style="fill:#D2501F;" d="M85.235,59.606c0.783,1.458,1.178,3.141,1.178,5.04v5.319c0,1.872-0.396,3.537-1.178,4.986
					c-0.773,1.44-1.943,2.583-3.49,3.402c-1.547,0.828-3.454,1.242-5.711,1.242c-2.24,0-4.128-0.414-5.676-1.242
					c-1.556-0.819-2.716-1.962-3.499-3.402c-0.783-1.449-1.169-3.114-1.169-4.986v-5.319c0-1.899,0.387-3.582,1.169-5.04
					c0.783-1.458,1.943-2.592,3.499-3.402c1.547-0.819,3.436-1.224,5.676-1.224c2.258,0,4.164,0.405,5.711,1.224
					C83.293,57.014,84.462,58.148,85.235,59.606z M81.835,70.028V64.61c0-1.971-0.486-3.519-1.457-4.644
					c-0.98-1.134-2.429-1.692-4.344-1.692c-1.925,0-3.373,0.558-4.344,1.692c-0.971,1.125-1.466,2.673-1.466,4.644v5.418
					c0,1.944,0.495,3.483,1.466,4.599c0.971,1.116,2.42,1.674,4.344,1.674c1.916,0,3.364-0.558,4.344-1.674
					C81.35,73.511,81.835,71.972,81.835,70.028"/>
			</g>
		</g>
	</g>
	<g>
		<g style="enable-background:new    ;">
			<g style="enable-background:new    ;">
				<defs>
					<path id="SVGID_18_" style="enable-background:new    ;" d="M38.703,78.466l-1.745,0c0.07,0,0.141-0.002,0.214-0.005l1.745,0
						C38.845,78.464,38.773,78.466,38.703,78.466z"/>
				</defs>
				<clipPath id="SVGID_17_">
					<use xlink:href="#SVGID_18_"  style="overflow:visible;"/>
				</clipPath>
				<g style="clip-path:url(#SVGID_17_);enable-background:new    ;">
					<path style="fill:#863314;" d="M38.703,78.466h-1.745c0.07,0,0.141-0.002,0.214-0.005h1.745
						C38.845,78.464,38.773,78.466,38.703,78.466"/>
				</g>
			</g>
			<g>
				<polygon style="fill:#7F3012;" points="28.106,64.79 26.361,64.79 26.469,64.763 28.214,64.763 				"/>
			</g>
			<g style="enable-background:new    ;">
				<defs>
					<path id="SVGID_16_" style="enable-background:new    ;" d="M36.983,69.839h-1.745c-1.16-1.863-2.321-3.726-3.49-5.589
						c-1.295-2.088-2.617-4.149-3.877-6.255c-0.682-1.123-1.57-1.831-3-1.831l1.745,0c1.43,0,2.318,0.708,3,1.831
						c1.259,2.106,2.581,4.167,3.877,6.255C34.663,66.113,35.823,67.976,36.983,69.839z"/>
				</defs>
				<clipPath id="SVGID_19_">
					<use xlink:href="#SVGID_16_"  style="overflow:visible;"/>
				</clipPath>
				<g style="clip-path:url(#SVGID_19_);enable-background:new    ;">
					<path style="fill:#7D2F12;" d="M36.983,69.839h-1.745c-1.16-1.863-2.321-3.726-3.49-5.589
						c-1.295-2.088-2.617-4.149-3.877-6.255c-0.682-1.123-1.57-1.831-3-1.831h1.745c1.43,0,2.318,0.708,3,1.831
						c1.259,2.106,2.581,4.167,3.877,6.255C34.663,66.113,35.823,67.976,36.983,69.839"/>
				</g>
			</g>
			<g style="enable-background:new    ;">
				<defs>
					<path id="SVGID_14_" style="enable-background:new    ;" d="M26.46,55.79l-1.745,0c2.073-0.004,4.144-0.007,6.215-0.007
						l1.745,0C30.604,55.783,28.533,55.785,26.46,55.79z"/>
				</defs>
				<clipPath id="SVGID_20_">
					<use xlink:href="#SVGID_14_"  style="overflow:visible;"/>
				</clipPath>
				<g style="clip-path:url(#SVGID_20_);enable-background:new    ;">
					<path style="fill:#863314;" d="M26.46,55.79l-1.745,0c2.073-0.004,4.144-0.007,6.215-0.007h1.745
						C30.604,55.783,28.533,55.785,26.46,55.79"/>
				</g>
			</g>
			<g style="enable-background:new    ;">
				<defs>
					<path id="SVGID_12_" style="enable-background:new    ;" d="M34.735,78.834l-1.745,0c-2.788,0-5.577-0.004-8.365-0.004l1.745,0
						C29.158,78.83,31.947,78.834,34.735,78.834z"/>
				</defs>
				<clipPath id="SVGID_21_">
					<use xlink:href="#SVGID_12_"  style="overflow:visible;"/>
				</clipPath>
				<g style="clip-path:url(#SVGID_21_);enable-background:new    ;">
					<path style="fill:#7D2F12;" d="M34.735,78.834H32.99c-2.788,0-5.577-0.004-8.365-0.004h1.745
						C29.158,78.83,31.947,78.834,34.735,78.834"/>
				</g>
			</g>
			<g style="enable-background:new    ;">
				<defs>
					<path id="SVGID_10_" style="enable-background:new    ;" d="M26.186,78.842l-1.745,0c-0.03,0-0.059-0.003-0.086-0.012l1.745,0
						C26.127,78.839,26.156,78.842,26.186,78.842z"/>
				</defs>
				<clipPath id="SVGID_22_">
					<use xlink:href="#SVGID_10_"  style="overflow:visible;"/>
				</clipPath>
				<g style="clip-path:url(#SVGID_22_);enable-background:new    ;">
					<path style="fill:#7D2F12;" d="M26.186,78.842h-1.745c-0.03,0-0.059-0.003-0.086-0.012H26.1
						C26.127,78.839,26.156,78.842,26.186,78.842"/>
				</g>
			</g>
			<g style="enable-background:new    ;">
				<defs>
					<path id="SVGID_8_" style="enable-background:new    ;" d="M25.731,78.65l-1.745,0c0.117-0.063,0.234-0.171,0.369-0.189
						c1.682-0.243,2.006-0.576,2.006-2.133c0.009-3.69,0-7.38,0-11.07c0-0.153,0-0.315,0-0.468l1.745,0c0,0.153,0,0.315,0,0.468
						c0,3.69,0.009,7.38,0,11.07c0,1.557-0.324,1.89-2.006,2.133C25.965,78.479,25.848,78.587,25.731,78.65z"/>
				</defs>
				<clipPath id="SVGID_23_">
					<use xlink:href="#SVGID_8_"  style="overflow:visible;"/>
				</clipPath>
				<g style="clip-path:url(#SVGID_23_);enable-background:new    ;">
					<path style="fill:#7D2F12;" d="M25.731,78.65h-1.745c0.098-0.053,0.196-0.137,0.305-0.174h1.745
						C25.927,78.513,25.829,78.597,25.731,78.65"/>
					<path style="fill:#823113;" d="M26.036,78.476h-1.745c0.021-0.007,0.042-0.012,0.064-0.015c0.42-0.061,0.755-0.127,1.022-0.216
						h1.745c-0.267,0.09-0.602,0.156-1.022,0.216C26.078,78.464,26.057,78.469,26.036,78.476"/>
					<path style="fill:#7D2F12;" d="M27.122,78.244h-1.745c0.802-0.269,0.984-0.748,0.984-1.917c0.009-3.69,0-7.38,0-11.07
						c0-0.153,0-0.315,0-0.468h1.745c0,0.153,0,0.315,0,0.468c0,3.69,0.009,7.38,0,11.07C28.106,77.496,27.923,77.975,27.122,78.244
						"/>
				</g>
			</g>
			<g>
				<path style="fill:#D2501F;" d="M38.917,78.461c0.202,0,0.393,0.128,0.585,0.189c-0.198,0.063-0.396,0.18-0.585,0.18
					c-1.394,0.003-2.788,0.004-4.182,0.004c-2.788,0-5.577-0.004-8.365-0.004c-0.06,0-0.124,0.012-0.184,0.012
					c-0.03,0-0.059-0.003-0.086-0.012c-0.126-0.045-0.252-0.117-0.369-0.18c0.117-0.063,0.234-0.171,0.369-0.189
					c1.682-0.243,2.006-0.576,2.006-2.133c0.009-3.69,0-7.38,0-11.07c0-0.153,0-0.315,0-0.468l0.108-0.027
					c0.081,0.117,0.171,0.234,0.252,0.351c2.384,3.825,4.785,7.632,7.133,11.466c0.712,1.176,1.646,1.886,3.105,1.886
					C38.773,78.466,38.845,78.464,38.917,78.461z"/>
			</g>
			<g style="enable-background:new    ;">
				<defs>
					<path id="SVGID_6_" style="enable-background:new    ;" d="M26.1,78.83h-1.745c-0.126-0.045-0.252-0.117-0.369-0.18l1.745,0
						C25.848,78.713,25.974,78.785,26.1,78.83z"/>
				</defs>
				<clipPath id="SVGID_24_">
					<use xlink:href="#SVGID_6_"  style="overflow:visible;"/>
				</clipPath>
				<g style="clip-path:url(#SVGID_24_);enable-background:new    ;">
					<path style="fill:#7D2F12;" d="M26.1,78.83h-1.745c-0.126-0.045-0.252-0.117-0.369-0.18h1.745
						C25.848,78.713,25.974,78.785,26.1,78.83"/>
				</g>
			</g>
			<g style="enable-background:new    ;">
				<defs>
					<path id="SVGID_4_" style="enable-background:new    ;" d="M26.433,56.168l-1.745,0c-0.25,0-0.485-0.119-0.711-0.18l1.745,0
						C25.948,56.049,26.182,56.168,26.433,56.168z"/>
				</defs>
				<clipPath id="SVGID_25_">
					<use xlink:href="#SVGID_4_"  style="overflow:visible;"/>
				</clipPath>
				<g style="clip-path:url(#SVGID_25_);enable-background:new    ;">
					<path style="fill:#7D2F12;" d="M26.433,56.168h-1.745c-0.25,0-0.485-0.119-0.711-0.18h1.745
						C25.948,56.049,26.182,56.168,26.433,56.168"/>
				</g>
			</g>
			<g>
				<path style="fill:#D2501F;" d="M26.433,56.168c-0.25,0-0.485-0.119-0.711-0.18c0.243-0.072,0.495-0.189,0.738-0.198
					c2.073-0.004,4.144-0.007,6.215-0.007s4.142,0.002,6.215,0.007c0.207,0,0.405,0.108,0.612,0.162
					c-0.189,0.081-0.369,0.207-0.567,0.234c-1.421,0.189-1.799,0.585-1.808,1.998c0,3.303,0,6.615,0,9.927c0,0.567,0,1.143,0,1.71
					l-0.144,0.018c-1.16-1.863-2.321-3.726-3.49-5.589c-1.295-2.088-2.617-4.149-3.877-6.255c-0.682-1.123-1.57-1.831-3-1.831
					C26.557,56.164,26.495,56.165,26.433,56.168z"/>
			</g>
			<g style="enable-background:new    ;">
				<defs>
					<path id="SVGID_2_" style="enable-background:new    ;" d="M25.722,55.988l-1.745,0c0.243-0.072,0.495-0.189,0.738-0.198
						l1.745,0C26.217,55.799,25.965,55.916,25.722,55.988z"/>
				</defs>
				<clipPath id="SVGID_26_">
					<use xlink:href="#SVGID_2_"  style="overflow:visible;"/>
				</clipPath>
				<g style="clip-path:url(#SVGID_26_);enable-background:new    ;">
					<path style="fill:#823113;" d="M25.722,55.988h-1.745c0.038-0.011,0.077-0.024,0.116-0.037h1.745
						C25.799,55.964,25.761,55.977,25.722,55.988"/>
					<path style="fill:#7D2F12;" d="M25.838,55.951h-1.745c0.063-0.021,0.126-0.043,0.189-0.065h1.745
						C25.964,55.908,25.901,55.93,25.838,55.951"/>
					<path style="fill:#823113;" d="M26.027,55.886h-1.745c0.116-0.039,0.233-0.074,0.347-0.089h1.745
						C26.259,55.812,26.143,55.847,26.027,55.886"/>
					<path style="fill:#863314;" d="M26.374,55.797h-1.745c0.029-0.004,0.057-0.006,0.085-0.007l1.745,0
						C26.431,55.791,26.403,55.793,26.374,55.797"/>
				</g>
			</g>
		</g>
	</g>
</g>
</svg>
